<svg xmlns="http://www.w3.org/2000/svg" viewBox="0 0 1024 1024" width="100%" height="100%">
  <defs>
    <linearGradient id="ssafyGrad" x1="0%" y1="0%" x2="0%" y2="100%">
      <stop offset="0%" stop-color="#38bdf8"/>
      <stop offset="100%" stop-color="#0284c7"/>
    </linearGradient>
    <linearGradient id="moyeoGrad" x1="0%" y1="0%" x2="0%" y2="100%">
      <stop offset="0%" stop-color="#0ea5e9"/>
      <stop offset="100%" stop-color="#0369a1"/>
    </linearGradient>
    <linearGradient id="boltGrad" x1="0%" y1="0%" x2="100%" y2="100%">
      <stop offset="0%" stop-color="#fde047"/>
      <stop offset="100%" stop-color="#eab308"/>
    </linearGradient>
  </defs>

  <g stroke="#0284c7" stroke-width="8" stroke-linecap="round" fill="none" opacity="0.8">
    <path d="M 180 340 L 160 310" />
    <path d="M 250 280 L 240 240" />
    <path d="M 330 260 L 330 220" />
    <path d="M 720 230 L 730 190" />
    <path d="M 800 250 L 820 210" />
    <path d="M 880 310 L 910 290" />
    <path d="M 910 390 L 950 380" />
    <path d="M 110 400 L 70 410" />
    <path d="M 110 500 L 70 510" />
  </g>

  <g transform="translate(0, -30)">
    <polygon points="530,90 350,440 480,440 310,880 750,440 580,440" fill="#1e293b" stroke="#1e293b" stroke-width="24" stroke-linejoin="round" />
    <polygon points="530,90 350,440 480,440 310,880 750,440 580,440" fill="url(#boltGrad)" />
    <polygon points="530,90 480,440 580,440" fill="#facc15" opacity="0.5" />
  </g>

  <g transform="translate(0, 10)">
    <text x="490" y="580" font-family="'Arial Black', 'Impact', sans-serif" font-size="250" font-weight="900" fill="#1e293b" stroke="#1e293b" stroke-width="48" stroke-linejoin="round" text-anchor="middle" letter-spacing="-10">SSAFY</text>
    <text x="490" y="595" font-family="'Arial Black', 'Impact', sans-serif" font-size="250" font-weight="900" fill="#1e293b" text-anchor="middle" letter-spacing="-10">SSAFY</text>
    
    <text x="490" y="580" font-family="'Arial Black', 'Impact', sans-serif" font-size="250" font-weight="900" fill="#ffffff" stroke="#ffffff" stroke-width="24" stroke-linejoin="round" text-anchor="middle" letter-spacing="-10">SSAFY</text>
    
    <text x="490" y="580" font-family="'Arial Black', 'Impact', sans-serif" font-size="250" font-weight="900" fill="url(#ssafyGrad)" text-anchor="middle" letter-spacing="-10">SSAFY</text>
  </g>

  <g transform="translate(40, 20)">
    <text x="650" y="770" font-family="'Apple SD Gothic Neo', 'Malgun Gothic', sans-serif" font-size="140" font-weight="900" fill="#1e293b" stroke="#1e293b" stroke-width="32" stroke-linejoin="round" text-anchor="middle" letter-spacing="-5">모여유</text>
    <text x="650" y="780" font-family="'Apple SD Gothic Neo', 'Malgun Gothic', sans-serif" font-size="140" font-weight="900" fill="#1e293b" text-anchor="middle" letter-spacing="-5">모여유</text>
    
    <text x="650" y="770" font-family="'Apple SD Gothic Neo', 'Malgun Gothic', sans-serif" font-size="140" font-weight="900" fill="#ffffff" stroke="#ffffff" stroke-width="16" stroke-linejoin="round" text-anchor="middle" letter-spacing="-5">모여유</text>
    
    <text x="650" y="770" font-family="'Apple SD Gothic Neo', 'Malgun Gothic', sans-serif" font-size="140" font-weight="900" fill="url(#moyeoGrad)" text-anchor="middle" letter-spacing="-5">모여유</text>
  </g>
</svg>
